{
	"asset":{
		"generator":"Khronos glTF Blender I/O v4.2.69",
		"version":"2.0"
	},
	"scene":0,
	"scenes":[
		{
			"name":"Scene",
			"nodes":[
				8
			]
		}
	],
	"nodes":[
		{
			"name":"Bone",
			"rotation":[
				0.658275842666626,
				0.13951922953128815,
				-0.15197065472602844,
				0.7239559888839722
			],
			"scale":[
				1.0000004768371582,
				1.000000238418579,
				0.9999999403953552
			],
			"translation":[
				-0.08508982509374619,
				0.7030891180038452,
				0.14326201379299164
			]
		},
		{
			"name":"Bone.001",
			"rotation":[
				0.6585190296173096,
				0.16296268999576569,
				-0.17225638031959534,
				0.7142293453216553
			],
			"scale":[
				0.9999992251396179,
				0.9999999403953552,
				0.9999999403953552
			],
			"translation":[
				0.1775352954864502,
				0.05737468600273132,
				0.10664087533950806
			]
		},
		{
			"name":"Bone.002",
			"rotation":[
				0.6730225682258606,
				-0.09028689563274384,
				0.10178488492965698,
				0.7269997596740723
			],
			"scale":[
				0.9999974966049194,
				0.9999997615814209,
				0.9999997615814209
			],
			"translation":[
				-0.09775760769844055,
				0.05737468600273132,
				0.21023553609848022
			]
		},
		{
			"name":"Bone.003",
			"rotation":[
				0.6730225682258606,
				-0.09028689563274384,
				0.10178488492965698,
				0.7269997596740723
			],
			"scale":[
				0.9999974966049194,
				0.9999997615814209,
				0.9999997615814209
			],
			"translation":[
				0.2142956554889679,
				0.05737468600273132,
				-0.3836107850074768
			]
		},
		{
			"name":"Bone.004",
			"rotation":[
				0.6647748947143555,
				-0.1307777762413025,
				0.14507260918617249,
				0.7210586071014404
			],
			"scale":[
				1.0000001192092896,
				1,
				1
			],
			"translation":[
				-0.10532230883836746,
				0.05737468600273132,
				-0.4706075191497803
			]
		},
		{
			"name":"Bone.005",
			"rotation":[
				0.487575888633728,
				0.004446384496986866,
				-0.004711416084319353,
				0.8730565905570984
			],
			"scale":[
				1,
				1,
				1.0000003576278687
			],
			"translation":[
				1.1269816724279735e-07,
				0.2750605642795563,
				-0.34586820006370544
			]
		},
		{
			"name":"Bone.006",
			"rotation":[
				-0.020786555483937263,
				1.1254839904495384e-07,
				-9.113145793548938e-09,
				0.9997839331626892
			],
			"scale":[
				1,
				1.0000001192092896,
				1
			],
			"translation":[
				1.8635130061284144e-07,
				0.2069762796163559,
				-0.5719080567359924
			]
		},
		{
			"mesh":0,
			"name":"coat rigged",
			"skin":0
		},
		{
			"children":[
				7,
				0,
				1,
				2,
				3,
				4,
				5,
				6
			],
			"name":"metarig",
			"rotation":[
				0,
				-1,
				0,
				1.6292068494294654e-07
			]
		}
	],
	"animations":[
		{
			"channels":[
				{
					"sampler":0,
					"target":{
						"node":0,
						"path":"translation"
					}
				},
				{
					"sampler":1,
					"target":{
						"node":0,
						"path":"rotation"
					}
				},
				{
					"sampler":2,
					"target":{
						"node":0,
						"path":"scale"
					}
				},
				{
					"sampler":3,
					"target":{
						"node":1,
						"path":"translation"
					}
				},
				{
					"sampler":4,
					"target":{
						"node":1,
						"path":"rotation"
					}
				},
				{
					"sampler":5,
					"target":{
						"node":1,
						"path":"scale"
					}
				},
				{
					"sampler":6,
					"target":{
						"node":2,
						"path":"translation"
					}
				},
				{
					"sampler":7,
					"target":{
						"node":2,
						"path":"rotation"
					}
				},
				{
					"sampler":8,
					"target":{
						"node":2,
						"path":"scale"
					}
				},
				{
					"sampler":9,
					"target":{
						"node":3,
						"path":"translation"
					}
				},
				{
					"sampler":10,
					"target":{
						"node":3,
						"path":"rotation"
					}
				},
				{
					"sampler":11,
					"target":{
						"node":3,
						"path":"scale"
					}
				},
				{
					"sampler":12,
					"target":{
						"node":4,
						"path":"translation"
					}
				},
				{
					"sampler":13,
					"target":{
						"node":4,
						"path":"rotation"
					}
				},
				{
					"sampler":14,
					"target":{
						"node":4,
						"path":"scale"
					}
				},
				{
					"sampler":15,
					"target":{
						"node":5,
						"path":"translation"
					}
				},
				{
					"sampler":16,
					"target":{
						"node":5,
						"path":"rotation"
					}
				},
				{
					"sampler":17,
					"target":{
						"node":5,
						"path":"scale"
					}
				},
				{
					"sampler":18,
					"target":{
						"node":6,
						"path":"translation"
					}
				},
				{
					"sampler":19,
					"target":{
						"node":6,
						"path":"rotation"
					}
				},
				{
					"sampler":20,
					"target":{
						"node":6,
						"path":"scale"
					}
				}
			],
			"name":"metarig",
			"samplers":[
				{
					"input":7,
					"interpolation":"LINEAR",
					"output":8
				},
				{
					"input":7,
					"interpolation":"LINEAR",
					"output":9
				},
				{
					"input":7,
					"interpolation":"LINEAR",
					"output":10
				},
				{
					"input":7,
					"interpolation":"LINEAR",
					"output":11
				},
				{
					"input":7,
					"interpolation":"LINEAR",
					"output":12
				},
				{
					"input":7,
					"interpolation":"LINEAR",
					"output":13
				},
				{
					"input":7,
					"interpolation":"LINEAR",
					"output":14
				},
				{
					"input":7,
					"interpolation":"LINEAR",
					"output":15
				},
				{
					"input":7,
					"interpolation":"LINEAR",
					"output":16
				},
				{
					"input":7,
					"interpolation":"LINEAR",
					"output":17
				},
				{
					"input":7,
					"interpolation":"LINEAR",
					"output":18
				},
				{
					"input":7,
					"interpolation":"LINEAR",
					"output":19
				},
				{
					"input":7,
					"interpolation":"LINEAR",
					"output":20
				},
				{
					"input":7,
					"interpolation":"LINEAR",
					"output":21
				},
				{
					"input":7,
					"interpolation":"LINEAR",
					"output":22
				},
				{
					"input":7,
					"interpolation":"LINEAR",
					"output":23
				},
				{
					"input":7,
					"interpolation":"LINEAR",
					"output":24
				},
				{
					"input":7,
					"interpolation":"LINEAR",
					"output":25
				},
				{
					"input":7,
					"interpolation":"LINEAR",
					"output":26
				},
				{
					"input":7,
					"interpolation":"LINEAR",
					"output":27
				},
				{
					"input":7,
					"interpolation":"LINEAR",
					"output":28
				}
			]
		}
	],
	"meshes":[
		{
			"name":"coat.001",
			"primitives":[
				{
					"attributes":{
						"POSITION":0,
						"NORMAL":1,
						"TEXCOORD_0":2,
						"JOINTS_0":3,
						"WEIGHTS_0":4
					},
					"indices":5
				}
			]
		}
	],
	"skins":[
		{
			"inverseBindMatrices":6,
			"joints":[
				0,
				1,
				2,
				3,
				4,
				5,
				6
			],
			"name":"metarig"
		}
	],
	"accessors":[
		{
			"bufferView":0,
			"componentType":5126,
			"count":16126,
			"max":[
				0.22267113626003265,
				0.784940779209137,
				0.5510738492012024
			],
			"min":[
				-0.23818299174308777,
				0.1034991443157196,
				-0.5657565593719482
			],
			"type":"VEC3"
		},
		{
			"bufferView":1,
			"componentType":5126,
			"count":16126,
			"type":"VEC3"
		},
		{
			"bufferView":2,
			"componentType":5126,
			"count":16126,
			"type":"VEC2"
		},
		{
			"bufferView":3,
			"componentType":5121,
			"count":16126,
			"type":"VEC4"
		},
		{
			"bufferView":4,
			"componentType":5126,
			"count":16126,
			"type":"VEC4"
		},
		{
			"bufferView":5,
			"componentType":5123,
			"count":87504,
			"type":"SCALAR"
		},
		{
			"bufferView":6,
			"componentType":5126,
			"count":7,
			"type":"MAT4"
		},
		{
			"bufferView":7,
			"componentType":5126,
			"count":121,
			"max":[
				2
			],
			"min":[
				0
			],
			"type":"SCALAR"
		},
		{
			"bufferView":8,
			"componentType":5126,
			"count":121,
			"type":"VEC3"
		},
		{
			"bufferView":9,
			"componentType":5126,
			"count":121,
			"type":"VEC4"
		},
		{
			"bufferView":10,
			"componentType":5126,
			"count":121,
			"type":"VEC3"
		},
		{
			"bufferView":11,
			"componentType":5126,
			"count":121,
			"type":"VEC3"
		},
		{
			"bufferView":12,
			"componentType":5126,
			"count":121,
			"type":"VEC4"
		},
		{
			"bufferView":13,
			"componentType":5126,
			"count":121,
			"type":"VEC3"
		},
		{
			"bufferView":14,
			"componentType":5126,
			"count":121,
			"type":"VEC3"
		},
		{
			"bufferView":15,
			"componentType":5126,
			"count":121,
			"type":"VEC4"
		},
		{
			"bufferView":16,
			"componentType":5126,
			"count":121,
			"type":"VEC3"
		},
		{
			"bufferView":17,
			"componentType":5126,
			"count":121,
			"type":"VEC3"
		},
		{
			"bufferView":18,
			"componentType":5126,
			"count":121,
			"type":"VEC4"
		},
		{
			"bufferView":19,
			"componentType":5126,
			"count":121,
			"type":"VEC3"
		},
		{
			"bufferView":20,
			"componentType":5126,
			"count":121,
			"type":"VEC3"
		},
		{
			"bufferView":21,
			"componentType":5126,
			"count":121,
			"type":"VEC4"
		},
		{
			"bufferView":22,
			"componentType":5126,
			"count":121,
			"type":"VEC3"
		},
		{
			"bufferView":23,
			"componentType":5126,
			"count":121,
			"type":"VEC3"
		},
		{
			"bufferView":24,
			"componentType":5126,
			"count":121,
			"type":"VEC4"
		},
		{
			"bufferView":25,
			"componentType":5126,
			"count":121,
			"type":"VEC3"
		},
		{
			"bufferView":26,
			"componentType":5126,
			"count":121,
			"type":"VEC3"
		},
		{
			"bufferView":27,
			"componentType":5126,
			"count":121,
			"type":"VEC4"
		},
		{
			"bufferView":28,
			"componentType":5126,
			"count":121,
			"type":"VEC3"
		}
	],
	"bufferViews":[
		{
			"buffer":0,
			"byteLength":193512,
			"byteOffset":0,
			"target":34962
		},
		{
			"buffer":0,
			"byteLength":193512,
			"byteOffset":193512,
			"target":34962
		},
		{
			"buffer":0,
			"byteLength":129008,
			"byteOffset":387024,
			"target":34962
		},
		{
			"buffer":0,
			"byteLength":64504,
			"byteOffset":516032,
			"target":34962
		},
		{
			"buffer":0,
			"byteLength":258016,
			"byteOffset":580536,
			"target":34962
		},
		{
			"buffer":0,
			"byteLength":175008,
			"byteOffset":838552,
			"target":34963
		},
		{
			"buffer":0,
			"byteLength":448,
			"byteOffset":1013560
		},
		{
			"buffer":0,
			"byteLength":484,
			"byteOffset":1014008
		},
		{
			"buffer":0,
			"byteLength":1452,
			"byteOffset":1014492
		},
		{
			"buffer":0,
			"byteLength":1936,
			"byteOffset":1015944
		},
		{
			"buffer":0,
			"byteLength":1452,
			"byteOffset":1017880
		},
		{
			"buffer":0,
			"byteLength":1452,
			"byteOffset":1019332
		},
		{
			"buffer":0,
			"byteLength":1936,
			"byteOffset":1020784
		},
		{
			"buffer":0,
			"byteLength":1452,
			"byteOffset":1022720
		},
		{
			"buffer":0,
			"byteLength":1452,
			"byteOffset":1024172
		},
		{
			"buffer":0,
			"byteLength":1936,
			"byteOffset":1025624
		},
		{
			"buffer":0,
			"byteLength":1452,
			"byteOffset":1027560
		},
		{
			"buffer":0,
			"byteLength":1452,
			"byteOffset":1029012
		},
		{
			"buffer":0,
			"byteLength":1936,
			"byteOffset":1030464
		},
		{
			"buffer":0,
			"byteLength":1452,
			"byteOffset":1032400
		},
		{
			"buffer":0,
			"byteLength":1452,
			"byteOffset":1033852
		},
		{
			"buffer":0,
			"byteLength":1936,
			"byteOffset":1035304
		},
		{
			"buffer":0,
			"byteLength":1452,
			"byteOffset":1037240
		},
		{
			"buffer":0,
			"byteLength":1452,
			"byteOffset":1038692
		},
		{
			"buffer":0,
			"byteLength":1936,
			"byteOffset":1040144
		},
		{
			"buffer":0,
			"byteLength":1452,
			"byteOffset":1042080
		},
		{
			"buffer":0,
			"byteLength":1452,
			"byteOffset":1043532
		},
		{
			"buffer":0,
			"byteLength":1936,
			"byteOffset":1044984
		},
		{
			"buffer":0,
			"byteLength":1452,
			"byteOffset":1046920
		}
	],
	"buffers":[
		{
			"byteLength":1048372,
			"uri":"dragon_coat.bin"
		}
	]
}
